<svg id="visual" viewBox="0 0 960 540" width="960" height="540" xmlns="http://www.w3.org/2000/svg" xmlns:xlink="http://www.w3.org/1999/xlink" version="1.1"><rect x="0" y="0" width="960" height="540" fill="#0E1925"></rect><path d="M0 318L17.8 338.2C35.7 358.3 71.3 398.7 106.8 425.3C142.3 452 177.7 465 213.2 462.8C248.7 460.7 284.3 443.3 320 428.3C355.7 413.3 391.3 400.7 426.8 391.7C462.3 382.7 497.7 377.3 533.2 389C568.7 400.7 604.3 429.3 640 445C675.7 460.7 711.3 463.3 746.8 440.2C782.3 417 817.7 368 853.2 345.5C888.7 323 924.3 327 942.2 329L960 331L960 541L942.2 541C924.3 541 888.7 541 853.2 541C817.7 541 782.3 541 746.8 541C711.3 541 675.7 541 640 541C604.3 541 568.7 541 533.2 541C497.7 541 462.3 541 426.8 541C391.3 541 355.7 541 320 541C284.3 541 248.7 541 213.2 541C177.7 541 142.3 541 106.8 541C71.3 541 35.7 541 17.8 541L0 541Z" fill="#fff705" stroke-linecap="round" stroke-linejoin="miter"></path></svg>